<?xml version="1.0" encoding="UTF-8" standalone="no"?>
<!-- Created with Inkscape (http://www.inkscape.org/) -->

<svg
   version="1.1"
   id="svg1"
   width="130"
   height="130"
   viewBox="0 0 130 130"
   sodipodi:docname="logo.svg"
   inkscape:version="1.3.2 (1:1.3.2+202311252150+091e20ef0f)"
   xmlns:inkscape="http://www.inkscape.org/namespaces/inkscape"
   xmlns:sodipodi="http://sodipodi.sourceforge.net/DTD/sodipodi-0.dtd"
   xmlns="http://www.w3.org/2000/svg"
   xmlns:svg="http://www.w3.org/2000/svg">
  <defs
     id="defs1" />
  <sodipodi:namedview
     id="namedview1"
     pagecolor="#ffffff"
     bordercolor="#666666"
     borderopacity="1.0"
     inkscape:showpageshadow="2"
     inkscape:pageopacity="0.0"
     inkscape:pagecheckerboard="0"
     inkscape:deskcolor="#d1d1d1"
     showguides="false"
     inkscape:zoom="1.334358"
     inkscape:cx="101.17225"
     inkscape:cy="11.616073"
     inkscape:window-width="1366"
     inkscape:window-height="682"
     inkscape:window-x="0"
     inkscape:window-y="24"
     inkscape:window-maximized="1"
     inkscape:current-layer="g1" />
  <g
     inkscape:groupmode="layer"
     inkscape:label="Image"
     id="g1">
    <path
       id="rect1"
       style="display:inline;stroke-width:7.83737;stroke-linecap:square;paint-order:stroke fill markers"
       d="M 0,0 H 130 V 130 H 0 Z" />
    <path
       id="rect1-3-1-5-2"
       style="display:inline;fill:#00ff00;stroke-width:1.04421;stroke-linecap:square;paint-order:stroke fill markers"
       d="m 110,10 h 10 V 40 H 110 Z M 10,90 h 10 v 30 H 10 Z M 80,70 H 90 V 80 H 80 Z" />
    <path
       id="rect1-3-1-3-6-2"
       style="display:inline;fill:#ffffff;stroke-width:1.20575;stroke-linecap:square;paint-order:stroke fill markers"
       d="M 10,50 H 50 V 60 H 10 Z M 10,30 H 50 V 40 H 10 Z m 10,80 h 20 v 10 H 20 Z M 20,80 H 40 V 90 H 20 Z M 10,10 H 50 V 20 H 10 Z m 40,0 H 60 V 60 H 50 Z m 20,40 h 50 V 60 H 70 Z m 0,-20 h 40 V 40 H 70 Z m 0,-20 h 40 V 20 H 70 Z m 0,30 H 80 V 50 H 70 Z m 10,50 h 10 v 30 H 80 Z m 20,-20 h 10 v 50 h -10 z m -40,0 h 10 v 50 H 60 Z M 40,80 h 10 v 40 H 40 Z M 10,70 H 20 V 90 H 10 Z m 100,40 h 10 v 10 h -10 z m 0,-30 h 10 v 10 h -10 z" />
  </g>
</svg>
